<svg xmlns="http://www.w3.org/2000/svg" xmlns:xlink="http://www.w3.org/1999/xlink" xmlns:svgjs="http://svgjs.com/svgjs" id="SvgjsSvg1001" width="288" height="288" version="1.1"><defs id="SvgjsDefs1002"/><g id="SvgjsG1008"><svg xmlns="http://www.w3.org/2000/svg" viewBox="0 0 512 512" width="288" height="288"><path fill="#9c9ca8" d="M0 0 C118.14 0 236.28 0 358 0 C358 71.28 358 142.56 358 216 C239.86 216 121.72 216 0 216 C0 144.72 0 73.44 0 0 Z " transform="translate(77 125)" class="colorB1EFFA svgShape"/><path fill="#9c9ca8" d="M0 0 C0.68004604 -0.00235223 1.36009207 -0.00470446 2.06074557 -0.00712797 C4.35012117 -0.01380962 6.6394399 -0.01336 8.92882442 -0.01294994 C10.58260765 -0.01624909 12.23639007 -0.01997477 13.89017147 -0.02409142 C18.44333121 -0.03411382 22.99647777 -0.03782861 27.54964697 -0.04048073 C32.4571324 -0.04438309 37.36460738 -0.0539615 42.27208614 -0.0626936 C54.128193 -0.08246026 65.98430071 -0.09252462 77.84041992 -0.10142139 C83.42318188 -0.10580408 89.0059429 -0.11117095 94.58870411 -0.11641026 C113.14640671 -0.13342297 131.70410873 -0.14791715 150.26181793 -0.155159 C155.07814249 -0.1570689 159.89446705 -0.15898923 164.71079159 -0.16094494 C166.50641116 -0.16167055 166.50641116 -0.16167055 168.33830588 -0.16241082 C187.73022927 -0.17071112 207.12209098 -0.19604787 226.51398743 -0.22852562 C246.42159688 -0.26159534 266.32917499 -0.27960769 286.23681206 -0.28280324 C297.41485413 -0.28496844 308.59280626 -0.29371869 319.77082157 -0.31926441 C329.29062628 -0.34097021 338.8103192 -0.3490224 348.33014584 -0.33929763 C353.18618776 -0.33475257 358.04199901 -0.33665123 362.8980093 -0.35605907 C367.34759038 -0.37368873 371.79677248 -0.3726946 376.24635779 -0.35716178 C377.85208093 -0.35478541 379.45783168 -0.35911079 381.06351263 -0.37099043 C395.39419344 -0.47040914 405.97496783 2.07687487 416.38925838 12.20453358 C423.09639084 19.29457783 427.38781044 27.11778936 427.38339996 37.01489353 C427.38539101 38.00169188 427.38738206 38.98849023 427.38943344 40.00519156 C427.3865206 41.08689667 427.38360776 42.16860178 427.38060665 43.28308582 C427.38188829 45.00942969 427.38188829 45.00942969 427.38319582 46.77064919 C427.38455931 49.9654691 427.38142955 53.16024855 427.37641776 56.35506368 C427.3721029 59.80015166 427.37356042 63.24523772 427.37432003 66.69032764 C427.37484461 72.6592882 427.37170471 78.62823782 427.36608219 84.59719563 C427.35795824 93.22732651 427.35535105 101.85745211 427.3540942 110.48758641 C427.35190509 124.48910435 427.34524882 138.49061646 427.33579159 152.49213123 C427.32661383 166.09401896 427.31953477 179.6959051 427.31528378 193.2977953 C427.31488969 194.55523759 427.31488969 194.55523759 427.31448764 195.83808276 C427.31318261 200.04352424 427.3119189 204.24896572 427.31067574 208.45440722 C427.30030752 243.34768265 427.28269303 278.24095133 427.26035213 313.13422108 C428.41793026 313.07621326 429.57550838 313.01820545 430.76816463 312.95843983 C432.30718661 312.91151843 433.84625246 312.86602082 435.38535213 312.82172108 C436.14589901 312.77982655 436.90644588 312.73793201 437.69003963 312.69476795 C441.85194109 312.6050718 444.46392883 312.84955706 447.76784134 315.516819 C450.30798878 318.18424463 451.01229831 318.97685246 451.02085018 322.55048084 C451.03653545 323.39228397 451.05222073 324.2340871 451.06838131 325.10139942 C451.05309887 326.00039463 451.03781643 326.89938984 451.02207088 327.82562733 C451.02543957 328.76671848 451.02880825 329.70780964 451.03227901 330.67741871 C451.03198042 332.66869029 451.01675469 334.66000793 450.98764706 336.65106678 C450.94829013 339.66319935 450.96684725 342.670853 450.99277401 345.6830492 C450.98757871 359.02512923 449.96044378 370.26075923 440.27988338 380.38422108 C432.31275955 387.28803438 423.87759232 390.45277469 413.33945751 390.39148998 C412.56815451 390.39499606 411.79685151 390.39850213 411.00217569 390.40211445 C408.42037647 390.41141049 405.8388037 390.40650979 403.2569952 390.40164661 C401.3861322 390.40538378 399.51527076 390.40998556 397.6444118 390.41537726 C392.50513159 390.42761448 387.36591643 390.42734593 382.22662497 390.42498851 C376.68318999 390.42458053 371.13977592 390.43561772 365.59635067 390.44510365 C354.73631246 390.46171858 343.87629596 390.46721342 333.01624611 390.4683284 C324.18879562 390.46927864 315.3613523 390.47338773 306.53390408 390.47972965 C285.58014262 390.49447719 264.62638505 390.50677924 243.67261791 390.50573254 C243.00263887 390.50570138 242.33265983 390.50567022 241.64237839 390.50563812 C238.24672839 390.50547191 234.85107839 390.50527383 231.45542839 390.5050687 C230.78105333 390.50502881 230.10667827 390.50498892 229.41186761 390.50494782 C228.04811692 390.50486695 226.68436623 390.50478335 225.32061554 390.50469704 C204.10551335 390.50347168 182.8904751 390.5184825 161.6753912 390.54584217 C137.83412028 390.57657607 113.99289102 390.59374854 90.15159488 390.59191573 C77.53049201 390.59125164 64.90946125 390.59675197 52.2883749 390.61827183 C41.54261448 390.63647665 30.79695885 390.64083664 20.05118969 390.62725298 C14.56933361 390.62071987 9.08767863 390.62061872 3.60584164 390.63795948 C-1.41539203 390.65367975 -6.43626495 390.65083703 -11.45748976 390.63339122 C-13.27105938 390.63031905 -15.08465586 390.63396186 -16.89819381 390.64511137 C-29.76263677 390.71894403 -40.50135049 389.68692353 -50.73574162 381.11859608 C-58.11680604 373.80947185 -62.00476234 364.97252003 -62.23343754 354.64760303 C-62.23677601 353.7421323 -62.24011448 352.83666157 -62.24355412 351.90375233 C-62.25853191 350.47358028 -62.25853191 350.47358028 -62.27381229 349.01451588 C-62.28891721 347.01189961 -62.29604047 345.0092087 -62.29555607 343.00653553 C-62.30215301 339.94433116 -62.35681081 336.88531119 -62.41347599 333.8236742 C-62.4222729 331.87121127 -62.42823056 329.91873304 -62.43105412 327.96625233 C-62.45261066 327.0547089 -62.47416721 326.14316547 -62.49637699 325.20399952 C-62.4871471 324.34928562 -62.47791721 323.49457172 -62.46840763 322.61395741 C-62.47268269 321.86753483 -62.47695774 321.12111225 -62.48136234 320.35207081 C-61.31400304 316.8614722 -58.85527129 314.89814715 -55.73964787 313.13422108 C-52.746557 312.55462895 -49.89870258 312.65459094 -46.86464787 312.82172108 C-46.08089787 312.84427967 -45.29714787 312.86683826 -44.48964787 312.89008045 C-42.57214526 312.9485409 -40.65563727 313.03820825 -38.73964787 313.13422108 C-38.74116675 312.54381053 -38.74268563 311.95339998 -38.74425054 311.3450982 C-38.83381685 276.33099639 -38.90242136 241.31691434 -38.94390918 206.30272175 C-38.94891184 202.0959199 -38.95408915 197.88911828 -38.95937443 193.68231678 C-38.96042367 192.84483944 -38.96147291 192.00736211 -38.96255395 191.14450667 C-38.97994601 177.59482903 -39.01147707 164.04521947 -39.04825905 150.49558219 C-39.08570187 136.58621068 -39.10789078 122.67687476 -39.11600184 108.76745492 C-39.1214827 100.18871383 -39.13877608 91.61016517 -39.17131373 83.03148333 C-39.1925029 77.14397593 -39.19883798 71.25656763 -39.19365337 65.3690249 C-39.19109834 61.97513411 -39.1971437 58.58184871 -39.21646976 55.18797207 C-39.23643768 51.50000501 -39.23156115 47.81285429 -39.22066593 44.12486744 C-39.2323173 43.06355222 -39.24396866 42.00223701 -39.2559731 40.90876073 C-39.15984469 28.82980701 -35.01509763 19.58727791 -26.66933537 11.00531483 C-18.78135065 3.54333625 -10.83064043 0.0159606 0 0 Z M-12.44667912 26.69672108 C-15.90377435 31.19216647 -17.99090363 34.24032317 -17.98574352 39.96804142 C-17.98972527 40.94469509 -17.99370701 41.92134876 -17.99780941 42.927598 C-17.99198408 43.99732475 -17.98615875 45.06705151 -17.9801569 46.16919422 C-17.98186893 47.30508991 -17.98358097 48.4409856 -17.98534489 49.61130238 C-17.98808199 52.77065183 -17.98179913 55.92983798 -17.97179332 59.08916813 C-17.96306918 62.54597169 -17.96598194 66.00276887 -17.96742916 69.45958042 C-17.96849316 76.17195618 -17.95925188 82.88427849 -17.9464265 89.59664051 C-17.93203711 97.35966095 -17.93043759 105.1226492 -17.92885685 112.88568592 C-17.91835243 133.38520612 -17.89043025 153.8847144 -17.86464787 174.38422108 C-17.82339787 220.17172108 -17.78214787 265.95922108 -17.73964787 313.13422108 C122.18035213 313.13422108 262.10035213 313.13422108 406.26035213 313.13422108 C406.36347713 267.42922108 406.46660213 221.72422108 406.57285213 174.63422108 C406.61837215 160.19349842 406.66389217 145.75277576 406.71079159 130.87445545 C406.72751196 117.94947064 406.72751196 117.94947064 406.73757076 105.02447987 C406.74223609 99.25972792 406.76058771 93.49521787 406.78822994 87.73053455 C406.82006462 81.0816995 406.8345301 74.43309668 406.82757689 67.78418484 C406.82456546 64.38300465 406.83211877 60.98275937 406.85642779 57.581604 C406.88126671 53.93738275 406.8753151 50.29446289 406.86162472 46.65021229 C406.8834697 45.06309814 406.8834697 45.06309814 406.905756 43.44392109 C406.82977903 35.9287976 405.05227974 30.94429703 399.71143132 25.57788706 C394.85708338 21.32387477 390.95144252 20.98902362 384.76238155 21.01396656 C383.99211044 21.01311214 383.22183932 21.01225771 382.42822665 21.01137739 C379.83944882 21.00972634 377.25073535 21.01523786 374.66196346 21.02069569 C372.80932778 21.02097766 370.95669198 21.02081962 369.10405636 21.02025318 C364.06719482 21.01996562 359.03035697 21.02585567 353.99350095 21.03282714 C348.73241085 21.03906756 343.47132024 21.03966502 338.21022701 21.04085255 C328.24426847 21.04396382 318.27832086 21.05217448 308.31236714 21.06220204 C296.96789578 21.07336948 285.62342391 21.07887522 274.27894843 21.08389747 C250.93941026 21.09435725 227.59988181 21.11195278 204.26035213 21.13422108 C204.14208065 21.75998035 204.02380917 22.38573963 203.9019537 23.03046131 C203.73663143 23.84716297 203.57130917 24.66386463 203.40097713 25.50531483 C203.16169491 26.72239124 203.16169491 26.72239124 202.9175787 27.96405506 C202.26035213 30.13422108 202.26035213 30.13422108 200.01035213 32.19672108 C195.74988081 33.64915448 192.77082346 33.64915448 188.51035213 32.19672108 C185.92958026 29.83101352 185.77658258 28.84632048 185.11972713 25.50531483 C184.95440487 24.68861317 184.7890826 23.87191151 184.61875057 23.03046131 C184.50047909 22.40470203 184.3822076 21.77894276 184.26035213 21.13422108 C159.86912974 21.04077756 135.47793417 20.97024171 111.08656883 20.92697239 C99.76121633 20.90634764 88.43597505 20.87822859 77.11069393 20.83246326 C67.23951759 20.79259298 57.3684218 20.76678763 47.49716717 20.7578671 C42.27044202 20.75265271 37.04394732 20.74039859 31.81729603 20.71130085 C26.89663736 20.68412886 21.97630384 20.67577975 17.05557728 20.68179035 C15.25082284 20.68069092 13.44605741 20.67274769 11.64136791 20.65739918 C9.17362826 20.63744298 6.70710978 20.64230187 4.23934078 20.65320301 C3.1726782 20.63572596 3.1726782 20.63572596 2.08446687 20.61789584 C-3.89871377 20.68914299 -8.04312887 22.66601147 -12.44667912 26.69672108 Z M-41.73964787 334.13422108 C-42.84917825 350.78993264 -42.84917825 350.78993264 -36.30214787 365.07172108 C-31.9498858 368.57476127 -29.17895133 369.38411958 -23.56404972 369.37473011 C-22.29642796 369.37747944 -21.02880619 369.38022877 -19.72277164 369.38306141 C-18.3205185 369.37598357 -16.91826631 369.36871396 -15.51601505 369.36127186 C-14.0376114 369.36070764 -12.55920719 369.36102452 -11.08080387 369.36215687 C-7.06872292 369.36273096 -3.05676143 369.35096749 0.95529175 369.33700895 C5.14866754 369.32451105 9.34204604 369.32333184 13.53543758 369.32095814 C21.47559067 369.31474061 29.41568871 369.29832609 37.35581756 369.27825916 C46.39563385 369.25590866 55.43545277 369.24490887 64.47528982 369.23486829 C83.07034814 369.2139601 101.66533101 369.17728044 120.26035213 369.13422108 C120.26035213 357.58422108 120.26035213 346.03422108 120.26035213 334.13422108 C66.80035213 334.13422108 13.34035213 334.13422108 -41.73964787 334.13422108 Z M141.26035213 334.13422108 C141.26035213 345.68422108 141.26035213 357.23422108 141.26035213 369.13422108 C176.24035213 369.13422108 211.22035213 369.13422108 247.26035213 369.13422108 C247.26035213 357.58422108 247.26035213 346.03422108 247.26035213 334.13422108 C212.28035213 334.13422108 177.30035213 334.13422108 141.26035213 334.13422108 Z M268.26035213 334.13422108 C268.26035213 345.68422108 268.26035213 357.23422108 268.26035213 369.13422108 C287.67976489 369.24716505 307.09891101 369.33923819 326.51856899 369.39328194 C335.53580658 369.41904431 344.55282533 369.45415709 353.56992245 369.51141834 C361.43085012 369.5613137 369.29161928 369.59352639 377.1527009 369.60466355 C381.31370801 369.61117199 385.47426171 369.62642712 389.63512325 369.66287136 C393.55534163 369.69692814 397.47492189 369.70725479 401.39527416 369.69975948 C402.83035029 369.70112974 404.26544878 369.71100512 405.70039654 369.73024845 C413.60993366 369.83107425 420.28676497 369.87094673 426.26035213 364.13422108 C432.22696655 354.89559231 430.26035213 345.16970484 430.26035213 334.13422108 C376.80035213 334.13422108 323.34035213 334.13422108 268.26035213 334.13422108 Z " transform="translate(61.74 60.866)" class="color010188 svgShape"/><path fill="#30303a" d="M0 0 C2.08839338 0.9840049 4.17005921 1.98236911 6.24609375 2.9921875 C8.56898275 4.09380833 10.89190061 5.19536833 13.21484375 6.296875 C14.44286706 6.8847597 15.67072929 7.47298098 16.8984375 8.06152344 C22.68062916 10.82765368 28.49909836 13.51607649 34.31204224 16.21676636 C36.23675978 17.11284196 38.15961681 18.01278114 40.08178711 18.91430664 C45.44541272 21.429782 50.81026706 23.93749954 56.21875 26.35546875 C57.40778931 26.89349121 57.40778931 26.89349121 58.62084961 27.44238281 C60.0139517 28.07107435 61.41152126 28.69002422 62.81469727 29.29589844 C66.86817835 31.13962957 69.25762349 33.12764311 71.68359375 36.8671875 C72.39196253 41.02885408 71.69521869 43.79473036 69.28417969 47.26879883 C65.66657609 50.88143622 60.65949546 52.67234419 56.05859375 54.7421875 C54.99640625 55.23976562 53.93421875 55.73734375 52.83984375 56.25 C45.02910371 59.8671875 45.02910371 59.8671875 42.68359375 59.8671875 C42.68359375 60.5271875 42.68359375 61.1871875 42.68359375 61.8671875 C43.83859375 62.1971875 44.99359375 62.5271875 46.18359375 62.8671875 C50.96717107 64.46934258 55.46667509 66.53913087 59.99609375 68.7421875 C60.68960938 69.06960937 61.383125 69.39703125 62.09765625 69.734375 C66.30668766 71.82663139 69.09237983 73.79714947 71.68359375 77.8671875 C72.17360295 81.22725058 71.97522763 83.1931892 70.62890625 86.3046875 C67.98603661 89.78605795 65.03652451 91.075195 61.12109375 92.8671875 C59.76552907 93.51281947 58.41006177 94.15865591 57.0546875 94.8046875 C56.36358887 95.12824219 55.67249023 95.45179688 54.96044922 95.78515625 C50.83518709 97.74560679 46.76197432 99.81140987 42.68359375 101.8671875 C43.38444092 102.16898926 44.08528809 102.47079102 44.80737305 102.78173828 C48.00269871 104.16880311 51.18672362 105.58016353 54.37109375 106.9921875 C55.47388672 107.4665625 56.57667969 107.9409375 57.71289062 108.4296875 C63.7402506 111.12470042 68.12705967 113.19871596 71.68359375 118.8671875 C72.30859375 121.8671875 72.30859375 121.8671875 71.68359375 124.8671875 C68.01758376 130.14440756 64.31957317 132.49582111 58.53515625 135.1171875 C57.73774521 135.49300461 56.94033417 135.86882172 56.11875916 136.25602722 C53.5221562 137.47494454 50.91608946 138.67177118 48.30859375 139.8671875 C46.50730375 140.70391457 44.7064445 141.54156954 42.90600586 142.38012695 C39.26060826 144.07446496 35.61080866 145.7587849 31.95751953 147.43603516 C27.84370169 149.32696238 23.74479371 151.24702834 19.65332031 153.1857605 C16.8447112 154.51410281 14.02934888 155.82759146 11.21185303 157.13696289 C9.91513615 157.74234169 8.62083024 158.35291552 7.3291626 158.96899414 C-6.46877585 165.53085953 -6.46877585 165.53085953 -13.31640625 163.8671875 C-17.62744549 162.2546327 -21.66670571 160.22599329 -25.75390625 158.1171875 C-27.54396089 157.2236357 -29.33404226 156.33013214 -31.12579346 155.43998718 C-32.35399412 154.82918539 -33.58116244 154.21630354 -34.80731201 153.60139465 C-41.11881531 150.44089932 -47.52233439 147.48968933 -53.94140625 144.5546875 C-55.55426514 143.81049561 -55.55426514 143.81049561 -57.19970703 143.05126953 C-61.9680199 140.8512448 -66.74270674 138.67143997 -71.546875 136.55078125 C-72.33046387 136.19862549 -73.11405273 135.84646973 -73.92138672 135.48364258 C-75.32746721 134.85213485 -76.73882879 134.23216635 -78.15673828 133.62768555 C-82.91965666 131.46798923 -85.35843638 129.05810556 -88.31640625 124.8671875 C-89.13808502 120.92312942 -88.68175957 119.43938945 -86.515625 116.046875 C-82.55278466 111.46979441 -76.91740823 109.42611386 -71.50390625 106.9921875 C-70.42947266 106.49460937 -69.35503906 105.99703125 -68.24804688 105.484375 C-65.61005494 104.26503651 -62.96649972 103.05993653 -60.31640625 101.8671875 C-62.9350053 99.78597243 -65.37704909 98.26793478 -68.46875 97 C-69.24541016 96.67128906 -70.02207031 96.34257812 -70.82226562 96.00390625 C-72.43726732 95.33196177 -74.05445573 94.665248 -75.67382812 94.00390625 C-81.02908201 91.7233756 -85.59172158 89.31655685 -88.31640625 83.8671875 C-88.8394768 80.03133682 -88.59106933 78.30074169 -86.5 75 C-82.64710419 70.59121375 -77.28621326 68.7294794 -72.00390625 66.4921875 C-70.97716797 66.04230469 -69.95042969 65.59242188 -68.89257812 65.12890625 C-66.37299931 64.02732296 -63.84802337 62.94074352 -61.31640625 61.8671875 C-61.31640625 61.2071875 -61.31640625 60.5471875 -61.31640625 59.8671875 C-62.33009277 59.41448486 -62.33009277 59.41448486 -63.36425781 58.95263672 C-66.44000288 57.56691372 -69.5029907 56.15494545 -72.56640625 54.7421875 C-73.62988281 54.2678125 -74.69335938 53.7934375 -75.7890625 53.3046875 C-85.62578052 48.72659232 -85.62578052 48.72659232 -88.31640625 42.8671875 C-88.93079309 39.10406813 -88.77907754 37.55753642 -86.64892578 34.37915039 C-84.07371293 31.60582351 -81.9095347 30.34446485 -78.49609375 28.73828125 C-77.33368164 28.18414551 -76.17126953 27.63000977 -74.97363281 27.05908203 C-73.71304416 26.47395296 -72.45229807 25.88916298 -71.19140625 25.3046875 C-69.88852613 24.68963662 -68.58612313 24.07357414 -67.28417969 23.45654297 C-63.30324659 21.5753742 -59.31085875 19.71943456 -55.31640625 17.8671875 C-54.10509484 17.30397775 -52.89383022 16.74066736 -51.68261719 16.17724609 C-46.19207232 13.62679446 -40.69444514 11.09295615 -35.1875 8.578125 C-31.48672983 6.88281352 -27.81357458 5.1467019 -24.1640625 3.34375 C-23.00052246 2.77406494 -23.00052246 2.77406494 -21.81347656 2.19287109 C-20.42033172 1.50688583 -19.03230234 0.81034159 -17.65136719 0.10009766 C-11.09222171 -3.11357145 -6.57013534 -2.85087882 0 0 Z " transform="translate(264.316 153.133)" class="color030489 svgShape"/><path fill="#d8ddde" d="M0 0 C2.31974171 1.13398088 4.64004808 2.26680745 6.9609375 3.3984375 C8.07307617 3.94081055 9.18521484 4.48318359 10.33105469 5.04199219 C15.06055073 7.31489853 19.83410785 9.48506008 24.625 11.625 C21.33945184 14.31459787 17.90560029 16.0262013 14.05859375 17.8046875 C13.4244606 18.09932892 12.79032745 18.39397034 12.13697815 18.69754028 C10.1141561 19.63609349 8.08839185 20.56809458 6.0625 21.5 C4.06866956 22.42365715 2.07542279 23.3485658 0.08218384 24.27349854 C-1.22029539 24.87535375 -2.52434937 25.47381322 -3.82998657 26.06878662 C-6.77963854 27.4129902 -9.69077291 28.78550707 -12.58154297 30.25488281 C-13.53303223 30.73022461 -14.48452148 31.20556641 -15.46484375 31.6953125 C-16.68288696 32.32977295 -16.68288696 32.32977295 -17.92553711 32.97705078 C-23.78711528 34.52759683 -30.65639608 29.74169141 -35.9296875 27.2734375 C-36.83123566 26.85454254 -37.73278381 26.43564758 -38.66165161 26.00405884 C-41.52585273 24.67239582 -44.3879445 23.33626726 -47.25 22 C-49.19777891 21.09345396 -51.14569412 20.18720072 -53.09375 19.28125 C-57.85575041 17.06588841 -62.61602936 14.84686196 -67.375 12.625 C-63.70161661 9.5433428 -59.59645913 7.69307263 -55.28515625 5.68359375 C-54.50361679 5.31524918 -53.72207733 4.9469046 -52.91685486 4.56739807 C-51.26791709 3.79125734 -49.61795468 3.01729024 -47.96704102 2.24536133 C-45.44781505 1.06732351 -42.93166889 -0.11708921 -40.41601562 -1.30273438 C-38.81007186 -2.05766623 -37.20395765 -2.81223565 -35.59765625 -3.56640625 C-34.84855484 -3.91852676 -34.09945343 -4.27064728 -33.32765198 -4.63343811 C-31.34823487 -5.5582049 -29.36265376 -6.46811698 -27.375 -7.375 C-26.00613647 -8.01804077 -26.00613647 -8.01804077 -24.60961914 -8.67407227 C-17.21734188 -10.9927905 -6.39537685 -3.14805689 0 0 Z " transform="translate(277.375 181.375)" class="colorAFEDF9 svgShape"/><path fill="#d8ddde" d="M0 0 C0.71889404 0.37181396 1.43778809 0.74362793 2.1784668 1.12670898 C2.98348633 1.52954102 3.78850586 1.93237305 4.61791992 2.34741211 C6.28337946 3.19375069 7.94491227 4.04786383 9.60229492 4.90991211 C15.02590414 7.60226951 18.75401927 8.86643785 24.81518555 8.06030273 C27.69863995 7.02214882 30.32432023 5.6667335 33.00268555 4.18530273 C45.24423361 -2.3327746 45.24423361 -2.3327746 49.81518555 -0.93969727 C52.58436472 0.11217248 55.2880626 1.31302063 58.00268555 2.49780273 C58.73938477 2.81040039 59.47608398 3.12299805 60.23510742 3.44506836 C65.69561893 5.8211695 65.69561893 5.8211695 66.81518555 8.06030273 C66.0560083 8.4122168 65.29683105 8.76413086 64.51464844 9.12670898 C62.24952949 10.17692075 59.9846585 11.22766741 57.7199707 12.27880859 C55.15209781 13.47031447 52.58260318 14.65822746 50.01196289 15.84375 C44.43402229 18.42030915 38.86601362 21.0028362 33.3815918 23.77514648 C32.61516357 24.15735352 31.84873535 24.53956055 31.05908203 24.93334961 C29.68694112 25.62266109 28.3224497 26.32750653 26.96777344 27.05053711 C24.02184673 28.51702374 22.36476421 29.20152604 19.12548828 28.36914062 C15.17617928 26.80765043 11.35805283 25.05230961 7.5300293 23.21655273 C6.36196495 22.66191345 6.36196495 22.66191345 5.17030334 22.09606934 C2.69620374 20.92072746 0.22432474 19.74080871 -2.24731445 18.56030273 C-4.72283709 17.38047303 -7.1988306 16.20165398 -9.67564392 15.02453613 C-11.21240791 14.29392727 -12.74838734 13.5616652 -14.28346252 12.82751465 C-17.87737411 11.11646009 -21.46300356 9.48091791 -25.18481445 8.06030273 C-22.41945649 4.69197198 -18.66843415 3.12042742 -14.80981445 1.31030273 C-13.81981445 0.81723633 -13.81981445 0.81723633 -12.80981445 0.31420898 C-7.79839786 -2.05173869 -5.02979357 -2.16333394 0 0 Z " transform="translate(235.185 226.94)" class="colorAEEBF8 svgShape"/><path fill="#d8ddde" d="M0 0 C1.67605896 0.8510626 3.35054088 1.70523804 5.0234375 2.5625 C11.22075119 5.72875711 11.22075119 5.72875711 18.01171875 5.71289062 C22.58222066 3.8083552 26.93192446 1.47994788 31.3125 -0.8203125 C38.17061137 -4.27880214 38.17061137 -4.27880214 42.17578125 -4.31835938 C45.85524605 -2.98037217 49.37116332 -1.44491509 52.88671875 0.27539062 C53.57507813 0.60474609 54.2634375 0.93410156 54.97265625 1.2734375 C56.65559205 2.07984424 58.33412168 2.89543556 60.01171875 3.71289062 C60.01171875 4.37289063 60.01171875 5.03289062 60.01171875 5.71289062 C54.69240753 8.24168729 49.37215366 10.76848605 44.05102539 13.29345703 C42.24184696 14.1522863 40.43292501 15.01165611 38.62426758 15.87158203 C36.02102199 17.10917886 33.4168531 18.34481394 30.8125 19.58007812 C30.00710281 19.96348358 29.20170563 20.34688904 28.37190247 20.74191284 C26.88778291 21.44497115 25.4007768 22.14198421 23.91030884 22.83148193 C22.37556186 23.54397871 20.85387813 24.28457245 19.33666992 25.03369141 C13.67771805 26.68686836 8.56028515 23.83929147 3.48828125 21.47460938 C2.78327484 21.15257034 2.07826843 20.83053131 1.35189819 20.49873352 C-0.88963537 19.47264102 -3.12638079 18.43653798 -5.36328125 17.40039062 C-6.85778521 16.71551766 -8.35257451 16.031267 -9.84765625 15.34765625 C-16.61903638 12.24153102 -23.33651053 9.06928445 -29.98828125 5.71289062 C-29.98828125 5.05289062 -29.98828125 4.39289063 -29.98828125 3.71289062 C-27.2884656 2.33893099 -24.58059079 0.98893373 -21.86328125 -0.34960938 C-21.10273438 -0.73955078 -20.3421875 -1.12949219 -19.55859375 -1.53125 C-11.79607994 -5.31212957 -7.48993492 -3.72115209 0 0 Z " transform="translate(240.988 270.287)" class="colorAEEBF8 svgShape"/></svg></g></svg>